<mxfile host="app.diagrams.net" agent="Mozilla/5.0 (X11; Linux x86_64) AppleWebKit/537.36 (KHTML, like Gecko) Chrome/131.0.0.0 Safari/537.36" version="26.0.6">
  <diagram name="Page-1" id="mSDC6a5a-Ssn83_Tqmhy">
    <mxGraphModel grid="1" page="1" gridSize="10" guides="1" tooltips="1" connect="1" arrows="1" fold="1" pageScale="1" pageWidth="850" pageHeight="1100" math="0" shadow="0">
      <root>
        <mxCell id="0" />
        <mxCell id="1" parent="0" />
        <mxCell id="4RJUjJ67am_6D7YRlv8M-3" value="VPC" style="points=[[0,0],[0.25,0],[0.5,0],[0.75,0],[1,0],[1,0.25],[1,0.5],[1,0.75],[1,1],[0.75,1],[0.5,1],[0.25,1],[0,1],[0,0.75],[0,0.5],[0,0.25]];outlineConnect=0;html=1;whiteSpace=wrap;fontSize=12;fontStyle=0;container=1;pointerEvents=0;collapsible=0;recursiveResize=0;shape=mxgraph.aws4.group;grIcon=mxgraph.aws4.group_vpc2;strokeColor=#666666;fillColor=#f5f5f5;verticalAlign=top;align=left;spacingLeft=30;fontColor=#333333;dashed=0;" vertex="1" parent="1">
          <mxGeometry x="130" y="150" width="1480" height="600" as="geometry" />
        </mxCell>
        <mxCell id="g-tD6x9GMgMnx-xnixW9-38" value="" style="line;strokeWidth=2;html=1;perimeter=backbonePerimeter;points=[];outlineConnect=0;" vertex="1" parent="4RJUjJ67am_6D7YRlv8M-3">
          <mxGeometry x="540" y="160" width="160" height="10" as="geometry" />
        </mxCell>
        <mxCell id="g-tD6x9GMgMnx-xnixW9-37" value="" style="line;strokeWidth=2;html=1;perimeter=backbonePerimeter;points=[];outlineConnect=0;strokeColor=#666666;" vertex="1" parent="4RJUjJ67am_6D7YRlv8M-3">
          <mxGeometry x="650" y="435" width="160" height="10" as="geometry" />
        </mxCell>
        <mxCell id="4RJUjJ67am_6D7YRlv8M-1" value="Private subnet" style="points=[[0,0],[0.25,0],[0.5,0],[0.75,0],[1,0],[1,0.25],[1,0.5],[1,0.75],[1,1],[0.75,1],[0.5,1],[0.25,1],[0,1],[0,0.75],[0,0.5],[0,0.25]];outlineConnect=0;html=1;whiteSpace=wrap;fontSize=12;fontStyle=0;container=1;pointerEvents=0;collapsible=0;recursiveResize=0;shape=mxgraph.aws4.group;grIcon=mxgraph.aws4.group_security_group;grStroke=0;strokeColor=#10739e;fillColor=#b1ddf0;verticalAlign=top;align=left;spacingLeft=30;dashed=0;" vertex="1" parent="4RJUjJ67am_6D7YRlv8M-3">
          <mxGeometry x="740" y="300" width="730" height="280" as="geometry" />
        </mxCell>
        <mxCell id="g-tD6x9GMgMnx-xnixW9-13" value="" style="aspect=fixed;sketch=0;html=1;dashed=0;whitespace=wrap;verticalLabelPosition=bottom;verticalAlign=top;fillColor=#2875E2;strokeColor=#ffffff;points=[[0.005,0.63,0],[0.1,0.2,0],[0.9,0.2,0],[0.5,0,0],[0.995,0.63,0],[0.72,0.99,0],[0.5,1,0],[0.28,0.99,0]];shape=mxgraph.kubernetes.icon2;prIcon=k_proxy" vertex="1" parent="4RJUjJ67am_6D7YRlv8M-1">
          <mxGeometry x="10" y="30" width="120" height="115.19" as="geometry" />
        </mxCell>
        <mxCell id="g-tD6x9GMgMnx-xnixW9-14" value="" style="aspect=fixed;sketch=0;html=1;dashed=0;whitespace=wrap;verticalLabelPosition=bottom;verticalAlign=top;fillColor=#2875E2;strokeColor=#ffffff;points=[[0.005,0.63,0],[0.1,0.2,0],[0.9,0.2,0],[0.5,0,0],[0.995,0.63,0],[0.72,0.99,0],[0.5,1,0],[0.28,0.99,0]];shape=mxgraph.kubernetes.icon2;prIcon=k_proxy" vertex="1" parent="4RJUjJ67am_6D7YRlv8M-1">
          <mxGeometry x="155" y="27.299999999999997" width="120" height="115.19" as="geometry" />
        </mxCell>
        <mxCell id="g-tD6x9GMgMnx-xnixW9-3" value="" style="aspect=fixed;sketch=0;html=1;dashed=0;whitespace=wrap;verticalLabelPosition=bottom;verticalAlign=top;fillColor=#2875E2;strokeColor=#ffffff;points=[[0.005,0.63,0],[0.1,0.2,0],[0.9,0.2,0],[0.5,0,0],[0.995,0.63,0],[0.72,0.99,0],[0.5,1,0],[0.28,0.99,0]];shape=mxgraph.kubernetes.icon2;prIcon=k_proxy" vertex="1" parent="4RJUjJ67am_6D7YRlv8M-1">
          <mxGeometry x="300" y="25.29" width="119.4" height="114.61" as="geometry" />
        </mxCell>
        <mxCell id="g-tD6x9GMgMnx-xnixW9-17" value="" style="image;sketch=0;aspect=fixed;html=1;points=[];align=center;fontSize=12;image=img/lib/mscae/VirtualMachineWindows.svg;" vertex="1" parent="4RJUjJ67am_6D7YRlv8M-1">
          <mxGeometry x="459.79" y="29.9" width="119.57" height="110" as="geometry" />
        </mxCell>
        <mxCell id="g-tD6x9GMgMnx-xnixW9-18" value="" style="image;sketch=0;aspect=fixed;html=1;points=[];align=center;fontSize=12;image=img/lib/mscae/VirtualMachineWindows.svg;" vertex="1" parent="4RJUjJ67am_6D7YRlv8M-1">
          <mxGeometry x="610" y="30" width="119.57" height="110" as="geometry" />
        </mxCell>
        <mxCell id="REuWl4msGtCmoJLBw7BR-43" value="" style="shape=datastore;whiteSpace=wrap;html=1;fillColor=#f8cecc;strokeColor=#b85450;" vertex="1" parent="4RJUjJ67am_6D7YRlv8M-1">
          <mxGeometry x="309.4" y="174.51" width="80" height="80" as="geometry" />
        </mxCell>
        <mxCell id="g-tD6x9GMgMnx-xnixW9-23" value="K8&#39;s Worker" style="text;html=1;align=center;verticalAlign=middle;resizable=0;points=[];autosize=1;strokeColor=none;fillColor=none;" vertex="1" parent="4RJUjJ67am_6D7YRlv8M-1">
          <mxGeometry x="170" y="144.51" width="90" height="30" as="geometry" />
        </mxCell>
        <mxCell id="g-tD6x9GMgMnx-xnixW9-24" value="K8&#39;s Worker" style="text;html=1;align=center;verticalAlign=middle;resizable=0;points=[];autosize=1;strokeColor=none;fillColor=none;" vertex="1" parent="4RJUjJ67am_6D7YRlv8M-1">
          <mxGeometry x="319.4" y="142.49" width="90" height="30" as="geometry" />
        </mxCell>
        <mxCell id="g-tD6x9GMgMnx-xnixW9-25" value="Certificate Authority" style="text;html=1;align=center;verticalAlign=middle;whiteSpace=wrap;rounded=0;" vertex="1" parent="4RJUjJ67am_6D7YRlv8M-1">
          <mxGeometry x="489.58000000000004" y="144.51" width="60" height="30" as="geometry" />
        </mxCell>
        <mxCell id="g-tD6x9GMgMnx-xnixW9-27" value="Database" style="text;html=1;align=center;verticalAlign=middle;whiteSpace=wrap;rounded=0;" vertex="1" parent="4RJUjJ67am_6D7YRlv8M-1">
          <mxGeometry x="319.4" y="250" width="60" height="30" as="geometry" />
        </mxCell>
        <mxCell id="7YLE8EI6DgYSNeFTxk1V-2" value="10.19.5.X" style="text;html=1;align=center;verticalAlign=middle;resizable=0;points=[];autosize=1;strokeColor=none;fillColor=none;" vertex="1" parent="4RJUjJ67am_6D7YRlv8M-1">
          <mxGeometry x="621.96" width="70" height="30" as="geometry" />
        </mxCell>
        <mxCell id="g-tD6x9GMgMnx-xnixW9-9" value="Domain Controller" style="text;html=1;align=center;verticalAlign=middle;whiteSpace=wrap;rounded=0;" vertex="1" parent="4RJUjJ67am_6D7YRlv8M-1">
          <mxGeometry x="624.2800000000001" y="145.19" width="105.72" height="30" as="geometry" />
        </mxCell>
        <mxCell id="g-tD6x9GMgMnx-xnixW9-4" value="K8&#39;s Worker 3" style="text;html=1;align=center;verticalAlign=middle;whiteSpace=wrap;rounded=0;" vertex="1" parent="4RJUjJ67am_6D7YRlv8M-1">
          <mxGeometry x="17.139999999999986" y="145.19" width="105.72" height="30" as="geometry" />
        </mxCell>
        <mxCell id="g-tD6x9GMgMnx-xnixW9-35" value="" style="line;strokeWidth=2;direction=south;html=1;strokeColor=#666666;" vertex="1" parent="4RJUjJ67am_6D7YRlv8M-3">
          <mxGeometry x="660" y="210" width="10" height="160" as="geometry" />
        </mxCell>
        <mxCell id="g-tD6x9GMgMnx-xnixW9-36" value="" style="line;strokeWidth=2;html=1;perimeter=backbonePerimeter;points=[];outlineConnect=0;strokeColor=#808080;" vertex="1" parent="4RJUjJ67am_6D7YRlv8M-3">
          <mxGeometry x="730" y="160" width="160" height="10" as="geometry" />
        </mxCell>
        <mxCell id="REuWl4msGtCmoJLBw7BR-4" value="DMZ" style="points=[[0,0],[0.25,0],[0.5,0],[0.75,0],[1,0],[1,0.25],[1,0.5],[1,0.75],[1,1],[0.75,1],[0.5,1],[0.25,1],[0,1],[0,0.75],[0,0.5],[0,0.25]];outlineConnect=0;html=1;whiteSpace=wrap;fontSize=12;fontStyle=0;container=1;pointerEvents=0;collapsible=0;recursiveResize=0;shape=mxgraph.aws4.group;grIcon=mxgraph.aws4.group_security_group;grStroke=0;strokeColor=#d79b00;fillColor=#ffe6cc;verticalAlign=top;align=left;spacingLeft=30;dashed=0;" vertex="1" parent="4RJUjJ67am_6D7YRlv8M-3">
          <mxGeometry x="30" y="310" width="640" height="280" as="geometry" />
        </mxCell>
        <mxCell id="g-tD6x9GMgMnx-xnixW9-1" value="" style="verticalLabelPosition=bottom;sketch=0;html=1;fillColor=#6ABD46;strokeColor=#ffffff;verticalAlign=top;align=center;points=[[0.085,0.085,0],[0.915,0.085,0],[0.915,0.915,0],[0.085,0.915,0],[0.25,0,0],[0.5,0,0],[0.75,0,0],[1,0.25,0],[1,0.5,0],[1,0.75,0],[0.75,1,0],[0.5,1,0],[0.25,1,0],[0,0.75,0],[0,0.5,0],[0,0.25,0]];pointerEvents=1;shape=mxgraph.cisco_safe.compositeIcon;bgIcon=mxgraph.cisco_safe.architecture.generic_appliance;resIcon=mxgraph.cisco_safe.architecture.siem;" vertex="1" parent="REuWl4msGtCmoJLBw7BR-4">
          <mxGeometry x="160" y="53.75" width="128.75" height="125" as="geometry" />
        </mxCell>
        <mxCell id="g-tD6x9GMgMnx-xnixW9-2" value="Graylog&lt;div&gt;&lt;br&gt;&lt;/div&gt;" style="text;html=1;align=center;verticalAlign=middle;resizable=0;points=[];autosize=1;strokeColor=none;fillColor=none;" vertex="1" parent="REuWl4msGtCmoJLBw7BR-4">
          <mxGeometry x="199.38" y="187.5" width="70" height="40" as="geometry" />
        </mxCell>
        <mxCell id="REuWl4msGtCmoJLBw7BR-9" value="" style="aspect=fixed;sketch=0;html=1;dashed=0;whitespace=wrap;verticalLabelPosition=bottom;verticalAlign=top;fillColor=#2875E2;strokeColor=#ffffff;points=[[0.005,0.63,0],[0.1,0.2,0],[0.9,0.2,0],[0.5,0,0],[0.995,0.63,0],[0.72,0.99,0],[0.5,1,0],[0.28,0.99,0]];shape=mxgraph.kubernetes.icon2;prIcon=k_proxy" vertex="1" parent="REuWl4msGtCmoJLBw7BR-4">
          <mxGeometry x="322" y="53.75" width="135.43" height="130" as="geometry" />
        </mxCell>
        <mxCell id="g-tD6x9GMgMnx-xnixW9-5" value="" style="image;sketch=0;aspect=fixed;html=1;points=[];align=center;fontSize=12;image=img/lib/mscae/VirtualMachineWindows.svg;" vertex="1" parent="REuWl4msGtCmoJLBw7BR-4">
          <mxGeometry x="10" y="61.25" width="133.16" height="122.5" as="geometry" />
        </mxCell>
        <mxCell id="g-tD6x9GMgMnx-xnixW9-12" value="Nginx Proxy" style="text;html=1;align=center;verticalAlign=middle;whiteSpace=wrap;rounded=0;" vertex="1" parent="REuWl4msGtCmoJLBw7BR-4">
          <mxGeometry x="500" y="187.5" width="80" height="30" as="geometry" />
        </mxCell>
        <mxCell id="7YLE8EI6DgYSNeFTxk1V-1" value="10.19.17.X" style="text;html=1;align=center;verticalAlign=middle;resizable=0;points=[];autosize=1;strokeColor=none;fillColor=none;" vertex="1" parent="REuWl4msGtCmoJLBw7BR-4">
          <mxGeometry x="520" width="80" height="30" as="geometry" />
        </mxCell>
        <mxCell id="7YLE8EI6DgYSNeFTxk1V-6" value="Text" style="text;html=1;align=center;verticalAlign=middle;whiteSpace=wrap;rounded=0;" vertex="1" parent="REuWl4msGtCmoJLBw7BR-4">
          <mxGeometry x="500" y="250" width="60" height="30" as="geometry" />
        </mxCell>
        <mxCell id="g-tD6x9GMgMnx-xnixW9-26" value="Workstation 1" style="text;html=1;align=center;verticalAlign=middle;whiteSpace=wrap;rounded=0;" vertex="1" parent="REuWl4msGtCmoJLBw7BR-4">
          <mxGeometry x="30" y="192.5" width="75.65" height="30" as="geometry" />
        </mxCell>
        <mxCell id="g-tD6x9GMgMnx-xnixW9-21" value="K8&#39;s Master" style="text;html=1;align=center;verticalAlign=middle;whiteSpace=wrap;rounded=0;" vertex="1" parent="REuWl4msGtCmoJLBw7BR-4">
          <mxGeometry x="353.05" y="183.75" width="73.33" height="30" as="geometry" />
        </mxCell>
        <mxCell id="7YLE8EI6DgYSNeFTxk1V-7" value="" style="image;sketch=0;aspect=fixed;html=1;points=[];align=center;fontSize=12;image=img/lib/mscae/VirtualMachineWindows.svg;" vertex="1" parent="REuWl4msGtCmoJLBw7BR-4">
          <mxGeometry x="491.29999999999995" y="87.5" width="108.7" height="100" as="geometry" />
        </mxCell>
        <mxCell id="REuWl4msGtCmoJLBw7BR-27" value="" style="sketch=0;points=[[0,0,0],[0.25,0,0],[0.5,0,0],[0.75,0,0],[1,0,0],[0,1,0],[0.25,1,0],[0.5,1,0],[0.75,1,0],[1,1,0],[0,0.25,0],[0,0.5,0],[0,0.75,0],[1,0.25,0],[1,0.5,0],[1,0.75,0]];outlineConnect=0;fontColor=#232F3E;fillColor=#DD344C;strokeColor=#ffffff;dashed=0;verticalLabelPosition=bottom;verticalAlign=top;align=center;html=1;fontSize=12;fontStyle=0;aspect=fixed;shape=mxgraph.aws4.resourceIcon;resIcon=mxgraph.aws4.network_firewall;" vertex="1" parent="4RJUjJ67am_6D7YRlv8M-3">
          <mxGeometry x="640" y="100" width="110" height="110" as="geometry" />
        </mxCell>
        <mxCell id="REuWl4msGtCmoJLBw7BR-5" value="Management" style="points=[[0,0],[0.25,0],[0.5,0],[0.75,0],[1,0],[1,0.25],[1,0.5],[1,0.75],[1,1],[0.75,1],[0.5,1],[0.25,1],[0,1],[0,0.75],[0,0.5],[0,0.25]];outlineConnect=0;html=1;whiteSpace=wrap;fontSize=12;fontStyle=0;container=1;pointerEvents=0;collapsible=0;recursiveResize=0;shape=mxgraph.aws4.group;grIcon=mxgraph.aws4.group_security_group;grStroke=0;strokeColor=#56517e;fillColor=#d0cee2;verticalAlign=top;align=left;spacingLeft=30;dashed=0;" vertex="1" parent="4RJUjJ67am_6D7YRlv8M-3">
          <mxGeometry x="880" y="20" width="570" height="240" as="geometry" />
        </mxCell>
        <mxCell id="g-tD6x9GMgMnx-xnixW9-19" value="" style="image;sketch=0;aspect=fixed;html=1;points=[];align=center;fontSize=12;image=img/lib/mscae/VM_Linux.svg;" vertex="1" parent="REuWl4msGtCmoJLBw7BR-5">
          <mxGeometry x="30" y="60" width="130.44" height="120" as="geometry" />
        </mxCell>
        <mxCell id="g-tD6x9GMgMnx-xnixW9-28" value="Management interface" style="text;html=1;align=center;verticalAlign=middle;whiteSpace=wrap;rounded=0;" vertex="1" parent="REuWl4msGtCmoJLBw7BR-5">
          <mxGeometry x="29.999999999999986" y="180" width="142.91" height="30" as="geometry" />
        </mxCell>
        <mxCell id="7YLE8EI6DgYSNeFTxk1V-9" value="" style="verticalLabelPosition=bottom;sketch=0;html=1;fillColor=#6ABD46;strokeColor=#ffffff;verticalAlign=top;align=center;points=[[0.085,0.085,0],[0.915,0.085,0],[0.915,0.915,0],[0.085,0.915,0],[0.25,0,0],[0.5,0,0],[0.75,0,0],[1,0.25,0],[1,0.5,0],[1,0.75,0],[0.75,1,0],[0.5,1,0],[0.25,1,0],[0,0.75,0],[0,0.5,0],[0,0.25,0]];pointerEvents=1;shape=mxgraph.cisco_safe.compositeIcon;bgIcon=mxgraph.cisco_safe.architecture.generic_appliance;resIcon=mxgraph.cisco_safe.architecture.siem;" vertex="1" parent="REuWl4msGtCmoJLBw7BR-5">
          <mxGeometry x="180" y="65" width="110" height="110" as="geometry" />
        </mxCell>
        <mxCell id="7YLE8EI6DgYSNeFTxk1V-10" value="" style="verticalLabelPosition=bottom;sketch=0;html=1;fillColor=#6ABD46;strokeColor=#ffffff;verticalAlign=top;align=center;points=[[0.085,0.085,0],[0.915,0.085,0],[0.915,0.915,0],[0.085,0.915,0],[0.25,0,0],[0.5,0,0],[0.75,0,0],[1,0.25,0],[1,0.5,0],[1,0.75,0],[0.75,1,0],[0.5,1,0],[0.25,1,0],[0,0.75,0],[0,0.5,0],[0,0.25,0]];pointerEvents=1;shape=mxgraph.cisco_safe.compositeIcon;bgIcon=mxgraph.cisco_safe.architecture.generic_appliance;resIcon=mxgraph.cisco_safe.architecture.siem;" vertex="1" parent="REuWl4msGtCmoJLBw7BR-5">
          <mxGeometry x="310" y="65" width="110" height="110" as="geometry" />
        </mxCell>
        <mxCell id="7YLE8EI6DgYSNeFTxk1V-11" value="" style="verticalLabelPosition=bottom;sketch=0;html=1;fillColor=#6ABD46;strokeColor=#ffffff;verticalAlign=top;align=center;points=[[0.085,0.085,0],[0.915,0.085,0],[0.915,0.915,0],[0.085,0.915,0],[0.25,0,0],[0.5,0,0],[0.75,0,0],[1,0.25,0],[1,0.5,0],[1,0.75,0],[0.75,1,0],[0.5,1,0],[0.25,1,0],[0,0.75,0],[0,0.5,0],[0,0.25,0]];pointerEvents=1;shape=mxgraph.cisco_safe.compositeIcon;bgIcon=mxgraph.cisco_safe.architecture.generic_appliance;resIcon=mxgraph.cisco_safe.architecture.siem;" vertex="1" parent="REuWl4msGtCmoJLBw7BR-5">
          <mxGeometry x="440" y="65" width="110" height="110" as="geometry" />
        </mxCell>
        <mxCell id="7YLE8EI6DgYSNeFTxk1V-12" value="Graylog&lt;div style=&quot;forced-color-adjust: none;&quot;&gt;&lt;br style=&quot;forced-color-adjust: none; color: rgb(0, 0, 0); font-family: Helvetica; font-size: 12px; font-style: normal; font-variant-ligatures: normal; font-variant-caps: normal; font-weight: 400; letter-spacing: normal; orphans: 2; text-align: center; text-indent: 0px; text-transform: none; widows: 2; word-spacing: 0px; -webkit-text-stroke-width: 0px; white-space: nowrap; background-color: rgb(251, 251, 251); text-decoration-thickness: initial; text-decoration-style: initial; text-decoration-color: initial;&quot;&gt;&lt;/div&gt;" style="text;whiteSpace=wrap;html=1;" vertex="1" parent="REuWl4msGtCmoJLBw7BR-5">
          <mxGeometry x="210" y="180" width="80" height="50" as="geometry" />
        </mxCell>
        <mxCell id="7YLE8EI6DgYSNeFTxk1V-13" value="Graylog&lt;div style=&quot;forced-color-adjust: none;&quot;&gt;&lt;br style=&quot;forced-color-adjust: none; color: rgb(0, 0, 0); font-family: Helvetica; font-size: 12px; font-style: normal; font-variant-ligatures: normal; font-variant-caps: normal; font-weight: 400; letter-spacing: normal; orphans: 2; text-align: center; text-indent: 0px; text-transform: none; widows: 2; word-spacing: 0px; -webkit-text-stroke-width: 0px; white-space: nowrap; background-color: rgb(251, 251, 251); text-decoration-thickness: initial; text-decoration-style: initial; text-decoration-color: initial;&quot;&gt;&lt;/div&gt;" style="text;whiteSpace=wrap;html=1;" vertex="1" parent="REuWl4msGtCmoJLBw7BR-5">
          <mxGeometry x="340" y="175" width="80" height="50" as="geometry" />
        </mxCell>
        <mxCell id="7YLE8EI6DgYSNeFTxk1V-14" value="Graylog&lt;div style=&quot;forced-color-adjust: none;&quot;&gt;&lt;br style=&quot;forced-color-adjust: none; color: rgb(0, 0, 0); font-family: Helvetica; font-size: 12px; font-style: normal; font-variant-ligatures: normal; font-variant-caps: normal; font-weight: 400; letter-spacing: normal; orphans: 2; text-align: center; text-indent: 0px; text-transform: none; widows: 2; word-spacing: 0px; -webkit-text-stroke-width: 0px; white-space: nowrap; background-color: rgb(251, 251, 251); text-decoration-thickness: initial; text-decoration-style: initial; text-decoration-color: initial;&quot;&gt;&lt;/div&gt;" style="text;whiteSpace=wrap;html=1;" vertex="1" parent="REuWl4msGtCmoJLBw7BR-5">
          <mxGeometry x="470" y="175" width="80" height="50" as="geometry" />
        </mxCell>
        <mxCell id="4RJUjJ67am_6D7YRlv8M-2" value="Public subnet" style="points=[[0,0],[0.25,0],[0.5,0],[0.75,0],[1,0],[1,0.25],[1,0.5],[1,0.75],[1,1],[0.75,1],[0.5,1],[0.25,1],[0,1],[0,0.75],[0,0.5],[0,0.25]];outlineConnect=0;html=1;whiteSpace=wrap;fontSize=12;fontStyle=0;container=1;pointerEvents=0;collapsible=0;recursiveResize=0;shape=mxgraph.aws4.group;grIcon=mxgraph.aws4.group_security_group;grStroke=0;strokeColor=#82b366;fillColor=#d5e8d4;verticalAlign=top;align=left;spacingLeft=30;dashed=0;" vertex="1" parent="4RJUjJ67am_6D7YRlv8M-3">
          <mxGeometry x="40" y="20" width="520" height="250" as="geometry" />
        </mxCell>
        <mxCell id="7YLE8EI6DgYSNeFTxk1V-5" value="&lt;span style=&quot;color: rgb(0, 0, 0); font-family: Helvetica; font-size: 12px; font-style: normal; font-variant-ligatures: normal; font-variant-caps: normal; font-weight: 400; letter-spacing: normal; orphans: 2; text-align: center; text-indent: 0px; text-transform: none; widows: 2; word-spacing: 0px; -webkit-text-stroke-width: 0px; white-space: nowrap; background-color: rgb(251, 251, 251); text-decoration-thickness: initial; text-decoration-style: initial; text-decoration-color: initial; float: none; display: inline !important;&quot;&gt;192.168.4.99&lt;/span&gt;" style="text;whiteSpace=wrap;html=1;" vertex="1" parent="4RJUjJ67am_6D7YRlv8M-3">
          <mxGeometry x="695" y="210" width="90" height="40" as="geometry" />
        </mxCell>
        <mxCell id="REuWl4msGtCmoJLBw7BR-7" value="SERVICES (Just click and Copy)" style="text;html=1;align=center;verticalAlign=middle;resizable=0;points=[];autosize=1;strokeColor=none;fillColor=none;" vertex="1" parent="1">
          <mxGeometry x="140" y="898" width="200" height="30" as="geometry" />
        </mxCell>
        <mxCell id="REuWl4msGtCmoJLBw7BR-10" value="Kubernetes&amp;nbsp;" style="text;html=1;align=center;verticalAlign=middle;resizable=0;points=[];autosize=1;strokeColor=none;fillColor=none;" vertex="1" parent="1">
          <mxGeometry x="145" y="948" width="90" height="30" as="geometry" />
        </mxCell>
        <mxCell id="REuWl4msGtCmoJLBw7BR-12" value="" style="image;sketch=0;aspect=fixed;html=1;points=[];align=center;fontSize=12;image=img/lib/mscae/VM_Linux.svg;" vertex="1" parent="1">
          <mxGeometry x="358.33" y="1060" width="86.96" height="80" as="geometry" />
        </mxCell>
        <mxCell id="REuWl4msGtCmoJLBw7BR-15" value="Linux&lt;div&gt;&lt;br&gt;&lt;/div&gt;" style="text;html=1;align=center;verticalAlign=middle;resizable=0;points=[];autosize=1;strokeColor=none;fillColor=none;" vertex="1" parent="1">
          <mxGeometry x="165" y="1080" width="50" height="40" as="geometry" />
        </mxCell>
        <mxCell id="REuWl4msGtCmoJLBw7BR-17" value="VPN" style="text;html=1;align=center;verticalAlign=middle;resizable=0;points=[];autosize=1;strokeColor=none;fillColor=none;" vertex="1" parent="1">
          <mxGeometry x="755" y="938" width="50" height="30" as="geometry" />
        </mxCell>
        <mxCell id="REuWl4msGtCmoJLBw7BR-19" value="Load balancing" style="text;html=1;align=center;verticalAlign=middle;resizable=0;points=[];autosize=1;strokeColor=none;fillColor=none;" vertex="1" parent="1">
          <mxGeometry x="755" y="1070" width="100" height="30" as="geometry" />
        </mxCell>
        <mxCell id="REuWl4msGtCmoJLBw7BR-20" value="" style="sketch=0;points=[[0,0,0],[0.25,0,0],[0.5,0,0],[0.75,0,0],[1,0,0],[0,1,0],[0.25,1,0],[0.5,1,0],[0.75,1,0],[1,1,0],[0,0.25,0],[0,0.5,0],[0,0.75,0],[1,0.25,0],[1,0.5,0],[1,0.75,0]];outlineConnect=0;fontColor=#232F3E;fillColor=#8C4FFF;strokeColor=#ffffff;dashed=0;verticalLabelPosition=bottom;verticalAlign=top;align=center;html=1;fontSize=12;fontStyle=0;aspect=fixed;shape=mxgraph.aws4.resourceIcon;resIcon=mxgraph.aws4.client_vpn;" vertex="1" parent="1">
          <mxGeometry x="900" y="914" width="78" height="78" as="geometry" />
        </mxCell>
        <mxCell id="REuWl4msGtCmoJLBw7BR-21" value="" style="sketch=0;outlineConnect=0;fontColor=#232F3E;gradientColor=none;fillColor=#8C4FFF;strokeColor=none;dashed=0;verticalLabelPosition=bottom;verticalAlign=top;align=center;html=1;fontSize=12;fontStyle=0;aspect=fixed;pointerEvents=1;shape=mxgraph.aws4.network_load_balancer;" vertex="1" parent="1">
          <mxGeometry x="910" y="1046" width="78" height="78" as="geometry" />
        </mxCell>
        <mxCell id="REuWl4msGtCmoJLBw7BR-23" value="" style="sketch=0;outlineConnect=0;fontColor=#232F3E;gradientColor=none;fillColor=#8C4FFF;strokeColor=none;dashed=0;verticalLabelPosition=bottom;verticalAlign=top;align=center;html=1;fontSize=12;fontStyle=0;aspect=fixed;pointerEvents=1;shape=mxgraph.aws4.nat_gateway;" vertex="1" parent="1">
          <mxGeometry x="920" y="1170" width="78" height="78" as="geometry" />
        </mxCell>
        <mxCell id="REuWl4msGtCmoJLBw7BR-24" value="&lt;span style=&quot;color: rgb(0, 0, 0); font-family: Helvetica; font-size: 12px; font-style: normal; font-variant-ligatures: normal; font-variant-caps: normal; font-weight: 400; letter-spacing: normal; orphans: 2; text-align: center; text-indent: 0px; text-transform: none; widows: 2; word-spacing: 0px; -webkit-text-stroke-width: 0px; white-space: nowrap; background-color: rgb(251, 251, 251); text-decoration-thickness: initial; text-decoration-style: initial; text-decoration-color: initial; float: none; display: inline !important;&quot;&gt;NAT GATEWAY&lt;/span&gt;&lt;div&gt;&lt;span style=&quot;color: rgb(0, 0, 0); font-family: Helvetica; font-size: 12px; font-style: normal; font-variant-ligatures: normal; font-variant-caps: normal; font-weight: 400; letter-spacing: normal; orphans: 2; text-align: center; text-indent: 0px; text-transform: none; widows: 2; word-spacing: 0px; -webkit-text-stroke-width: 0px; white-space: nowrap; background-color: rgb(251, 251, 251); text-decoration-thickness: initial; text-decoration-style: initial; text-decoration-color: initial; float: none; display: inline !important;&quot;&gt;&lt;br&gt;&lt;/span&gt;&lt;/div&gt;" style="text;whiteSpace=wrap;html=1;" vertex="1" parent="1">
          <mxGeometry x="760" y="1189" width="110" height="40" as="geometry" />
        </mxCell>
        <mxCell id="REuWl4msGtCmoJLBw7BR-25" value="" style="sketch=0;outlineConnect=0;fontColor=#232F3E;gradientColor=none;fillColor=#ED7100;strokeColor=none;dashed=0;verticalLabelPosition=bottom;verticalAlign=top;align=center;html=1;fontSize=12;fontStyle=0;aspect=fixed;pointerEvents=1;shape=mxgraph.aws4.container_1;" vertex="1" parent="1">
          <mxGeometry x="358.33" y="1189" width="94" height="60.71" as="geometry" />
        </mxCell>
        <mxCell id="REuWl4msGtCmoJLBw7BR-26" value="&lt;div style=&quot;forced-color-adjust: none;&quot;&gt;Containers&lt;/div&gt;" style="text;whiteSpace=wrap;html=1;" vertex="1" parent="1">
          <mxGeometry x="160" y="1194.36" width="60" height="50" as="geometry" />
        </mxCell>
        <mxCell id="REuWl4msGtCmoJLBw7BR-28" value="&lt;span style=&quot;color: rgb(0, 0, 0); font-family: Helvetica; font-size: 12px; font-style: normal; font-variant-ligatures: normal; font-variant-caps: normal; font-weight: 400; letter-spacing: normal; orphans: 2; text-align: left; text-indent: 0px; text-transform: none; widows: 2; word-spacing: 0px; -webkit-text-stroke-width: 0px; white-space: normal; background-color: rgb(251, 251, 251); text-decoration-thickness: initial; text-decoration-style: initial; text-decoration-color: initial; float: none; display: inline !important;&quot;&gt;FIREWALL&lt;/span&gt;" style="text;whiteSpace=wrap;html=1;" vertex="1" parent="1">
          <mxGeometry x="790" y="1310" width="90" height="40" as="geometry" />
        </mxCell>
        <mxCell id="REuWl4msGtCmoJLBw7BR-30" value="" style="sketch=0;pointerEvents=1;shadow=0;dashed=0;html=1;strokeColor=none;fillColor=#505050;labelPosition=center;verticalLabelPosition=bottom;verticalAlign=top;outlineConnect=0;align=center;shape=mxgraph.office.servers.reverse_proxy;" vertex="1" parent="1">
          <mxGeometry x="930" y="1430" width="80" height="110" as="geometry" />
        </mxCell>
        <mxCell id="REuWl4msGtCmoJLBw7BR-31" value="&lt;div style=&quot;text-align: left;&quot;&gt;&lt;span style=&quot;background-color: transparent; color: light-dark(rgb(0, 0, 0), rgb(255, 255, 255)); text-wrap-mode: wrap;&quot;&gt;REVERSE PROXY&lt;/span&gt;&lt;/div&gt;" style="text;html=1;align=center;verticalAlign=middle;resizable=0;points=[];autosize=1;strokeColor=none;fillColor=none;" vertex="1" parent="1">
          <mxGeometry x="755" y="1480" width="130" height="30" as="geometry" />
        </mxCell>
        <mxCell id="REuWl4msGtCmoJLBw7BR-33" value="" style="image;sketch=0;aspect=fixed;html=1;points=[];align=center;fontSize=12;image=img/lib/mscae/VirtualMachineWindows.svg;" vertex="1" parent="1">
          <mxGeometry x="358.33000000000004" y="1310" width="108.7" height="100" as="geometry" />
        </mxCell>
        <mxCell id="REuWl4msGtCmoJLBw7BR-34" value="Windows" style="text;html=1;align=center;verticalAlign=middle;resizable=0;points=[];autosize=1;strokeColor=none;fillColor=none;" vertex="1" parent="1">
          <mxGeometry x="150" y="1330" width="70" height="30" as="geometry" />
        </mxCell>
        <mxCell id="REuWl4msGtCmoJLBw7BR-41" value="" style="verticalLabelPosition=bottom;sketch=0;html=1;fillColor=#6ABD46;strokeColor=#ffffff;verticalAlign=top;align=center;points=[[0.085,0.085,0],[0.915,0.085,0],[0.915,0.915,0],[0.085,0.915,0],[0.25,0,0],[0.5,0,0],[0.75,0,0],[1,0.25,0],[1,0.5,0],[1,0.75,0],[0.75,1,0],[0.5,1,0],[0.25,1,0],[0,0.75,0],[0,0.5,0],[0,0.25,0]];pointerEvents=1;shape=mxgraph.cisco_safe.compositeIcon;bgIcon=mxgraph.cisco_safe.architecture.generic_appliance;resIcon=mxgraph.cisco_safe.architecture.siem;" vertex="1" parent="1">
          <mxGeometry x="352.68" y="1450" width="117.32" height="110" as="geometry" />
        </mxCell>
        <mxCell id="REuWl4msGtCmoJLBw7BR-42" value="Graylog" style="text;html=1;align=center;verticalAlign=middle;resizable=0;points=[];autosize=1;strokeColor=none;fillColor=none;" vertex="1" parent="1">
          <mxGeometry x="170" y="1490" width="70" height="30" as="geometry" />
        </mxCell>
        <mxCell id="REuWl4msGtCmoJLBw7BR-44" value="" style="outlineConnect=0;dashed=0;verticalLabelPosition=bottom;verticalAlign=top;align=center;html=1;shape=mxgraph.aws3.ec2;fillColor=#F58534;gradientColor=none;" vertex="1" parent="1">
          <mxGeometry x="373.09" y="1590" width="76.5" height="93" as="geometry" />
        </mxCell>
        <mxCell id="REuWl4msGtCmoJLBw7BR-45" value="Nginx or any other machine" style="text;html=1;align=center;verticalAlign=middle;resizable=0;points=[];autosize=1;strokeColor=none;fillColor=none;" vertex="1" parent="1">
          <mxGeometry x="125" y="1608" width="170" height="30" as="geometry" />
        </mxCell>
        <mxCell id="REuWl4msGtCmoJLBw7BR-46" value="Database" style="text;html=1;align=center;verticalAlign=middle;resizable=0;points=[];autosize=1;strokeColor=none;fillColor=none;" vertex="1" parent="1">
          <mxGeometry x="195" y="1738" width="70" height="30" as="geometry" />
        </mxCell>
        <mxCell id="REuWl4msGtCmoJLBw7BR-47" value="" style="sketch=0;points=[[0,0,0],[0.25,0,0],[0.5,0,0],[0.75,0,0],[1,0,0],[0,1,0],[0.25,1,0],[0.5,1,0],[0.75,1,0],[1,1,0],[0,0.25,0],[0,0.5,0],[0,0.75,0],[1,0.25,0],[1,0.5,0],[1,0.75,0]];outlineConnect=0;fontColor=#232F3E;fillColor=#DD344C;strokeColor=#ffffff;dashed=0;verticalLabelPosition=bottom;verticalAlign=top;align=center;html=1;fontSize=12;fontStyle=0;aspect=fixed;shape=mxgraph.aws4.resourceIcon;resIcon=mxgraph.aws4.network_firewall;" vertex="1" parent="1">
          <mxGeometry x="930" y="1292" width="78" height="78" as="geometry" />
        </mxCell>
        <mxCell id="g-tD6x9GMgMnx-xnixW9-15" value="" style="aspect=fixed;sketch=0;html=1;dashed=0;whitespace=wrap;verticalLabelPosition=bottom;verticalAlign=top;fillColor=#2875E2;strokeColor=#ffffff;points=[[0.005,0.63,0],[0.1,0.2,0],[0.9,0.2,0],[0.5,0,0],[0.995,0.63,0],[0.72,0.99,0],[0.5,1,0],[0.28,0.99,0]];shape=mxgraph.kubernetes.icon2;prIcon=k_proxy" vertex="1" parent="1">
          <mxGeometry x="368.33" y="938" width="83.34" height="80" as="geometry" />
        </mxCell>
        <mxCell id="g-tD6x9GMgMnx-xnixW9-20" value="" style="shape=datastore;whiteSpace=wrap;html=1;" vertex="1" parent="1">
          <mxGeometry x="402.33000000000004" y="1740" width="60" height="60" as="geometry" />
        </mxCell>
        <mxCell id="7YLE8EI6DgYSNeFTxk1V-3" value="10.19.3.X" style="text;html=1;align=center;verticalAlign=middle;resizable=0;points=[];autosize=1;strokeColor=none;fillColor=none;" vertex="1" parent="1">
          <mxGeometry x="1325" y="148" width="70" height="30" as="geometry" />
        </mxCell>
        <mxCell id="7YLE8EI6DgYSNeFTxk1V-4" value="192.168.4.X" style="text;html=1;align=center;verticalAlign=middle;resizable=0;points=[];autosize=1;strokeColor=none;fillColor=none;" vertex="1" parent="1">
          <mxGeometry x="565" y="158" width="90" height="30" as="geometry" />
        </mxCell>
      </root>
    </mxGraphModel>
  </diagram>
</mxfile>
